<?xml version="1.0" standalone="no"?>
<svg viewBox="0 0 200 200" xmlns="http://www.w3.org/2000/svg">
  <path fill="#B2E5FD" d="M40.9,-70.5C50.6,-65.2,54.5,-49.5,60.8,-36C67.2,-22.5,75.9,-11.2,78.4,1.5C81,14.2,77.4,28.4,69.6,39.4C61.9,50.4,49.9,58.1,37.6,64.1C25.3,70.1,12.7,74.3,1.6,71.5C-9.5,68.7,-18.9,58.9,-31.4,53.1C-43.9,47.2,-59.4,45.2,-66.1,37C-72.8,28.8,-70.7,14.4,-71.9,-0.6C-73,-15.7,-77.3,-31.4,-73.8,-45.2C-70.3,-59,-59,-70.9,-45.4,-73.9C-31.8,-77,-15.9,-71.2,-0.2,-70.9C15.6,-70.6,31.2,-75.8,40.9,-70.5Z" transform="translate(100 100)" />
</svg>
