<?xml version="1.0" standalone="no"?>
<svg viewBox="0 0 200 200" xmlns="http://www.w3.org/2000/svg">
  <path fill="#B2E5FD" d="M39.7,-73.1C49.4,-63.2,53.9,-48.4,58.3,-35.5C62.6,-22.5,66.8,-11.2,69.8,1.7C72.8,14.7,74.6,29.4,67.5,37.6C60.4,45.8,44.4,47.4,31.6,53.3C18.9,59.2,9.4,69.3,-0.5,70.1C-10.4,71,-20.8,62.5,-34.8,57.4C-48.8,52.2,-66.4,50.3,-77.1,41.3C-87.7,32.3,-91.6,16.2,-87.9,2.1C-84.2,-11.9,-73.1,-23.8,-65.3,-37.9C-57.5,-52,-53.1,-68.2,-42.8,-77.8C-32.5,-87.4,-16.2,-90.5,-0.6,-89.4C15,-88.3,30,-83.1,39.7,-73.1Z" transform="translate(100 100)" />
</svg>
