<?xml version="1.0" standalone="no"?>
<svg viewBox="0 0 200 200" xmlns="http://www.w3.org/2000/svg">
  <path fill="#B2E5FD" d="M41.2,-73.3C50.4,-66,52.8,-49,59.3,-35.1C65.7,-21.3,76,-10.6,79.9,2.3C83.8,15.1,81.3,30.3,74.5,43.5C67.8,56.8,56.8,68.2,43.7,74.4C30.6,80.6,15.3,81.7,1.1,79.8C-13.2,78,-26.4,73.3,-39.3,66.9C-52.2,60.6,-64.7,52.6,-71.9,41.2C-79,29.8,-80.7,14.9,-81.9,-0.7C-83.2,-16.3,-83.9,-32.6,-75.7,-42.1C-67.5,-51.7,-50.3,-54.4,-36.1,-58.9C-22,-63.4,-11,-69.7,2.5,-74C16,-78.3,31.9,-80.6,41.2,-73.3Z" transform="translate(100 100)" />
</svg>
